<svg xmlns="http://www.w3.org/2000/svg" viewBox="0 0 20 20"><path fill="black" d="M14.11.26c3.27 0 5.91 2.64 5.91 5.9v8.18a5.9 5.9 0 01-5.9 5.92H5.92a5.9 5.9 0 01-5.9-5.92V6.16c0-3.26 2.64-5.9 5.9-5.9zm-1.88 4.48H7.82L4.16 15.43h3.62l2.23-7.35 2.25 7.35h3.62zm0 0"/><path fill="black" d="M9.02 5.03l2.74-2.33-.08-.24L8.95 4.8zm.39 1.18l2.73-2.33-.08-.23-2.73 2.33zm.38 1.19l2.73-2.34-.07-.23L9.7 7.16zm.38 1.18l2.74-2.34-.08-.24-2.74 2.34zm-.81 2.36l3.93-3.53-.07-.22-3.74 3.36zm.02 1.33l4.3-3.66-.08-.24-4.54 3.88zm1.6.14l3.08-2.63-.08-.23-3.32 2.83zm.37 1.24l3.1-2.68-.08-.24-3.1 2.69zm.39 1.18l3.09-2.68-.08-.24-3.09 2.69zm.72.85l2.75-2.35-.07-.23-2.75 2.34zm1.36.35l1.78-1.52-.08-.23L13.5 16zm1.6.14l.56-.48-.08-.23-.8.68zm.74.07l-.06-.19-.2.16zm0 0"/></svg>