<svg xmlns="http://www.w3.org/2000/svg" fill-rule="evenodd" clip-rule="evenodd" viewBox="0 0 84 31">
  <g class="array-main-header-logo">
    <ellipse cx="81.55" cy="20.08" rx="2.45" ry="2.47"/>
    <path d="M13.6 15.41H5.62L4.2 19.35H0L7.34 0h4.54l7.3 19.35h-4.2zm-1.07-2.96L9.6 4.19l-2.94 8.26zm12.78-5.52a6.23 6.23 0 015.53-3.16v4.19H29.7c-2.92 0-4.38 1.33-4.38 3.99v7.4h-3.98V3.99h3.98v2.94zm11.71 0a6.23 6.23 0 015.53-3.16v4.19H41.4c-2.92 0-4.38 1.33-4.38 3.99v7.4h-3.98V3.99h3.98zM50.88 3.8c1.32 0 2.45.3 3.39.91a5 5 0 012 2.47V3.99h3.95v15.36h-3.95v-3.22a5.07 5.07 0 01-2 2.48c-.94.63-2.07.93-3.39.93a6.4 6.4 0 01-6.03-3.67 9.41 9.41 0 01-.88-4.2c0-1.6.3-3 .89-4.2a6.4 6.4 0 012.47-2.73 6.8 6.8 0 013.55-.94zm1.24 3.4c-1.24 0-2.24.4-2.99 1.2A4.56 4.56 0 0048 11.67c0 1.39.38 2.47 1.13 3.26a3.95 3.95 0 003 1.18c1.2 0 2.19-.4 2.97-1.2a4.44 4.44 0 001.17-3.24 4.5 4.5 0 00-1.17-3.26 3.98 3.98 0 00-2.98-1.2zM66.52 4l4.26 10.41L74.72 4h4.38L68.21 31h-4.4l4.85-12.1L62.08 4h4.43z" fill-rule="nonzero"/>
  </g>
</svg>
