<?xml version="1.0" encoding="UTF-8"?>
<svg xmlns="http://www.w3.org/2000/svg" xmlns:xlink="http://www.w3.org/1999/xlink" width="18px" height="18px" viewBox="0 0 16 16" version="1.1">
<g id="surface1">
<path style=" stroke:none;fill-rule:evenodd;fill:rgb(34,113,177);fill-opacity:1;" d="M 11.292969 0.191406 C 13.847656 0.238281 15.878906 2.34375 15.835938 4.894531 L 15.722656 11.292969 C 15.679688 13.847656 13.574219 15.878906 11.019531 15.835938 L 4.621094 15.722656 C 2.070312 15.679688 0.0351562 13.574219 0.0820312 11.019531 L 0.191406 4.621094 C 0.238281 2.070312 2.34375 0.0351562 4.894531 0.0820312 Z M 9.757812 3.671875 L 6.308594 3.613281 L 3.300781 11.921875 L 6.136719 11.972656 L 7.980469 6.253906 L 9.636719 12.035156 L 12.472656 12.082031 Z M 9.757812 3.671875 "/>
<path style="fill-rule:nonzero;fill:rgb(34,113,177);fill-opacity:1;stroke-width:1.2;stroke-linecap:butt;stroke-linejoin:miter;stroke:rgb(34,113,177);stroke-opacity:1;stroke-miterlimit:4;" d="M 57.616941 33.394381 L 74.267315 16.499133 L 73.613716 15.010224 L 56.996121 31.902026 Z M 60.833158 40.97693 L 77.447308 24.052349 L 76.826488 22.559994 L 60.176114 39.455242 Z M 64.013151 48.530145 L 80.66008 31.602119 L 80.039259 30.109765 L 63.392331 47.037791 Z M 67.193145 56.083361 L 83.872851 39.15189 L 83.248586 37.626757 L 66.572324 54.591007 Z M 63.243478 72.107678 L 87.075288 46.603325 L 86.497581 45.205861 L 63.794217 69.464832 Z M 64.12711 80.830186 L 90.298395 54.251431 L 89.641351 52.729744 L 62.008619 80.854005 Z M 74.766121 80.838759 L 93.507721 61.768423 L 92.854123 60.279514 L 72.644186 80.8298 Z M 77.918455 88.759428 L 96.687714 69.321639 L 96.066894 67.829285 L 77.297634 87.267074 Z M 81.131226 96.309199 L 99.900486 76.87141 L 99.279666 75.379056 L 80.510406 94.816844 Z M 86.37833 101.457877 L 103.113258 84.42118 L 102.492438 82.928826 L 85.754064 99.932745 Z M 95.486893 102.986069 L 106.326029 91.970951 L 105.672431 90.482042 L 93.368402 103.009888 Z M 106.125904 102.994642 L 109.538801 99.520722 L 108.885203 98.031813 L 104.003969 102.985682 Z M 110.999456 103.012659 L 110.507978 101.804975 L 109.307085 102.991691 Z M 110.999456 103.012659 " transform="matrix(0.117869,0.0123886,-0.0123886,0.117869,0.934942,-0.829649)"/>
</g>
</svg>
