<?xml version="1.0" encoding="UTF-8"?>
<svg width="135px" height="135px" viewBox="0 0 135 135" version="1.1" xmlns="http://www.w3.org/2000/svg" xmlns:xlink="http://www.w3.org/1999/xlink">
    <title>Group 3</title>
    <g id="Pricing" stroke="none" stroke-width="1" fill="none" fill-rule="evenodd">
        <g id="Group-2" transform="translate(67.141807, 67.141807) rotate(1.000000) translate(-67.141807, -67.141807) translate(1.141807, 1.141807)" fill="#9EA3A8">
            <path d="M93,0 C114.539105,-3.95666944e-15 132,17.4608948 132,39 L132,93 C132,114.539105 114.539105,132 93,132 L39,132 C17.4608948,132 2.63777963e-15,114.539105 0,93 L0,39 C-2.63777963e-15,17.4608948 17.4608948,3.95666944e-15 39,0 L93,0 Z M80.5529896,29.5862069 L51.4470104,29.5862069 L27.3103448,100.137931 L51.2441813,100.137931 L65.9492927,51.6087084 L80.7558187,100.137931 L104.689655,100.137931 L80.5529896,29.5862069 Z" id="Combined-Shape"></path>
            <path d="M57.6302517,33.3944361 L74.2521035,16.4916676 L73.6134469,15 L57,31.8943891 L57.6302517,33.3944361 Z M60.8235279,40.9617153 L77.4621849,24.0421857 L76.8235284,22.5505181 L60.193274,39.461666 L60.8235279,40.9617153 Z M64.0084015,48.5289944 L80.663866,31.5927061 L80.0336143,30.1010385 L63.3781498,47.0289474 L64.0084015,48.5289944 Z M67.20168,56.0962691 L83.8739519,39.1432197 L83.2352953,37.6431727 L66.5630234,54.5962221 L67.20168,56.0962691 Z M63.2345899,72.1106772 L87.0840333,46.6059747 L86.5050919,45.1936998 L63.8000542,69.4487407 L63.2345899,72.1106772 Z M64.1260448,80.8428706 L90.294117,54.2358855 L89.6470578,52.7442179 L62.0168016,80.8428706 L64.1260448,80.8428706 Z M74.7562982,80.8428728 L93.4957958,61.7780242 L92.8571414,60.2863566 L72.647055,80.8428728 L74.7562982,80.8428728 Z M77.935721,88.7668132 L96.6974746,69.3369217 L96.0588203,67.8368747 L77.3054693,87.2667662 L77.935721,88.7668132 Z M81.1290017,96.3257107 L99.8991579,76.8874399 L99.2689062,75.3873929 L80.49875,94.8256637 L81.1290017,96.3257107 Z M86.3865495,101.441288 L103.109242,84.437958 L102.47899,82.937911 L85.7562978,99.9412412 L86.3865495,101.441288 Z M95.4789909,102.999996 L106.319327,91.9800944 L105.680673,90.4800474 L93.3697477,102.999996 L95.4789909,102.999996 Z M106.117647,103 L109.529413,99.530617 L108.890757,98.03057 L104.008404,103 L106.117647,103 Z M111,102.999998 L110.495799,101.801636 L109.319328,102.999998 L111,102.999998 Z" id="A" stroke="#9EA3A8" stroke-width="1.2" fill-rule="nonzero" transform="translate(84.000000, 59.000000) rotate(5.000000) translate(-84.000000, -59.000000) "></path>
        </g>
    </g>
</svg>