<svg xmlns="http://www.w3.org/2000/svg" fill-rule="evenodd" clip-rule="evenodd" viewBox="0 0 41.99 42">
  <path class="array-main-header-logo" d="M29.59 0c6.8 0 12.4 5.6 12.4 12.41v17.18c0 6.81-5.6 12.41-12.4 12.41H12.41C5.6 42 0 36.4 0 29.6V12.4C0 5.6 5.6 0 12.4 0zm-3.96 9.42h-9.26L8.68 31.86h7.62l4.68-15.44 4.71 15.44h7.62z"/>
  <path class="array-main-header-logo logo-lines" d="M19.08 9.93l5.74-4.9-.16-.5-5.73 4.9zm.8 2.48l5.74-4.9-.16-.5-5.74 4.9zm.8 2.49l5.75-4.9-.16-.5-5.75 4.9zm.8 2.49l5.76-4.91-.17-.5-5.75 4.91zm-1.7 4.96l8.27-7.42-.15-.47-7.86 7.06zm.04 2.8l9.04-7.71-.17-.5-9.54 8.15zm3.37.29l6.47-5.52-.16-.5-6.98 5.96zm.79 2.6l6.49-5.64-.16-.5-6.49 5.65.16.5v0zm.8 2.48l6.5-5.64-.17-.49-6.48 5.64.16.5v0zm1.53 1.77l5.77-4.93-.16-.49-5.77 4.93zm2.84.75l3.74-3.2-.16-.49-4.25 3.63zm3.37.3l1.18-1.01-.16-.5-1.69 1.45.67.05zm1.54.13l-.12-.4-.4.35z" fill-rule="nonzero" stroke="#000" stroke-width=".38"/>
</svg>
